<svg xmlns="http://www.w3.org/2000/svg" width="4047" height="2218" viewBox="0 0 4047 2218">
  <g fill="none" fill-rule="evenodd">
    <path fill="#F1FFFF" d="M2648.7865,411.894288 C2861.38691,154.194597 3550.29992,-129.336372 3830.42751,98.3903179 C4110.5551,326.117008 4120.77989,1098.19427 3843.29329,1463.96026 C3565.8067,1829.72624 3068.71742,2214.67495 3068.71742,2214.67495 L1530.75339,2214.67495 L1530.75339,798.081514 C1530.75339,798.081514 2436.1861,669.593979 2648.7865,411.894288 Z"/>
    <path fill="#27F1FF" d="M2558.68394,369.273155 C2771.28434,140.107303 3460.19736,-112.029654 3740.32495,90.4819621 C4020.45254,292.993578 4030.67732,979.582467 3753.19073,1304.84896 C3475.70414,1630.11544 2978.61486,1972.44064 2978.61486,1972.44064 L1440.65083,1972.44064 L1440.65083,712.69974 C1440.65083,712.69974 2346.08354,598.439007 2558.68394,369.273155 Z"/>
    <path fill="#27D0FF" d="M2373.64914,413.219338 C2586.24955,155.519647 3275.16256,-128.011321 3555.29015,99.7153683 C3835.41774,327.442058 3845.64253,1099.51932 3568.15594,1465.28531 C3290.66934,1831.05129 2793.58007,2216 2793.58007,2216 L1255.61603,2216 L1255.61603,799.406564 C1255.61603,799.406564 2161.04874,670.919029 2373.64914,413.219338 Z"/>
    <path fill="#27FFD4" d="M2094.52707,400.386097 C2307.12747,140.694796 2996.04049,-145.027417 3276.16808,84.4592388 C3556.29567,313.945895 3566.52045,1091.99009 3289.03386,1460.58287 C3011.54727,1829.17565 2514.45799,2217.0994 2514.45799,2217.0994 L976.493961,2217.0994 L976.493961,789.557938 C976.493961,789.557938 1881.92667,660.077398 2094.52707,400.386097 Z"/>
    <path fill="#26EC54" d="M1360.59186,412.894288 C1619.31619,155.194597 2457.68979,-128.336372 2798.59143,99.3903179 C3139.49307,327.117008 3151.93613,1099.19427 2814.24846,1464.96026 C2476.56079,1830.72624 1871.62734,2215.67495 1871.62734,2215.67495 L0,2215.67495 L9.3864947e-14,799.081514 C9.3864947e-14,799.081514 1101.86752,670.593979 1360.59186,412.894288 Z"/>
  </g>
</svg>
