<svg xmlns="http://www.w3.org/2000/svg" width="1469" height="163" viewBox="0 0 1469 163">
  <g fill="none" fill-rule="evenodd">
    <path fill="#FF3434" d="M1342.85142,0 C1358.74672,0 1372.84393,11.6985815 1381.61778,23.5704903 C1390.39163,11.6985815 1404.48884,0 1420.38415,0 C1446.98931,0 1468.55705,21.5677457 1468.55705,48.1729083 C1468.55705,104.081991 1386.61203,158.321169 1386.61203,158.321169 C1383.45407,160.536247 1377.75356,162.331923 1373.88456,162.331923 L1275,162.331923 L1275,0 L1342.85142,0 Z"/>
    <path fill="#A5F841" d="M1267.85142,0 C1283.74672,0 1297.84393,11.6985815 1306.61778,23.5704903 C1315.39163,11.6985815 1329.48884,0 1345.38415,0 C1371.98931,0 1393.55705,21.5677457 1393.55705,48.1729083 C1393.55705,104.081991 1311.61203,158.321169 1311.61203,158.321169 C1308.45407,160.536247 1302.75356,162.331923 1298.88456,162.331923 L1200,162.331923 L1200,0 L1267.85142,0 Z"/>
    <path fill="#38D4FF" d="M1192.85142,0 C1208.74672,0 1222.84393,11.6985815 1231.61778,23.5704903 C1240.39163,11.6985815 1254.48884,0 1270.38415,0 C1296.98931,0 1318.55705,21.5677457 1318.55705,48.1729083 C1318.55705,104.081991 1236.61203,158.321169 1236.61203,158.321169 C1233.45407,160.536247 1227.75356,162.331923 1223.88456,162.331923 L1125,162.331923 L1125,0 L1192.85142,0 Z"/>
    <path fill="#5C31F6" d="M1117.85142,0 C1133.74672,0 1147.84393,11.6985815 1156.61778,23.5704903 C1165.39163,11.6985815 1179.48884,0 1195.38415,0 C1221.98931,0 1243.55705,21.5677457 1243.55705,48.1729083 C1243.55705,104.081991 1161.61203,158.321169 1161.61203,158.321169 C1158.45407,160.536247 1152.75356,162.331923 1148.88456,162.331923 L1050,162.331923 L1050,0 L1117.85142,0 Z"/>
    <path fill="#F8A141" d="M1042.85142,0 C1058.74672,0 1072.84393,11.6985815 1081.61778,23.5704903 C1090.39163,11.6985815 1104.48884,0 1120.38415,0 C1146.98931,0 1168.55705,21.5677457 1168.55705,48.1729083 C1168.55705,104.081991 1086.61203,158.321169 1086.61203,158.321169 C1083.45407,160.536247 1077.75356,162.331923 1073.88456,162.331923 L975,162.331923 L975,0 L1042.85142,0 Z"/>
    <path fill="#FBFF2D" d="M967.851418,0 C983.746724,0 997.84393,11.6985815 1006.61778,23.5704903 C1015.39163,11.6985815 1029.48884,0 1045.38415,0 C1071.98931,0 1093.55705,21.5677457 1093.55705,48.1729083 C1093.55705,104.081991 1011.61203,158.321169 1011.61203,158.321169 C1008.45407,160.536247 1002.75356,162.331923 998.88456,162.331923 L900,162.331923 L900,0 L967.851418,0 Z"/>
    <path fill="#FF2C5E" d="M892.851418,0 C908.746724,0 922.84393,11.6985815 931.617782,23.5704903 C940.391634,11.6985815 954.48884,0 970.384146,0 C996.989309,0 1018.55705,21.5677457 1018.55705,48.1729083 C1018.55705,104.081991 936.61203,158.321169 936.61203,158.321169 C933.454066,160.536247 927.753562,162.331923 923.88456,162.331923 L825,162.331923 L825,0 L892.851418,0 Z"/>
    <path fill="#CACACA" d="M817.851418,0 C833.746724,0 847.84393,11.6985815 856.617782,23.5704903 C865.391634,11.6985815 879.48884,0 895.384146,0 C921.989309,0 943.557054,21.5677457 943.557054,48.1729083 C943.557054,104.081991 861.61203,158.321169 861.61203,158.321169 C858.454066,160.536247 852.753562,162.331923 848.88456,162.331923 L750,162.331923 L750,0 L817.851418,0 Z"/>
    <path fill="#73D227" d="M742.851418,0 C758.746724,0 772.84393,11.6985815 781.617782,23.5704903 C790.391634,11.6985815 804.48884,0 820.384146,0 C846.989309,0 868.557054,21.5677457 868.557054,48.1729083 C868.557054,104.081991 786.61203,158.321169 786.61203,158.321169 C783.454066,160.536247 777.753562,162.331923 773.88456,162.331923 L675,162.331923 L675,0 L742.851418,0 Z"/>
    <path fill="#FF4D46" d="M667.851418,0 C683.746724,0 697.84393,11.6985815 706.617782,23.5704903 C715.391634,11.6985815 729.48884,0 745.384146,0 C771.989309,0 793.557054,21.5677457 793.557054,48.1729083 C793.557054,104.081991 711.61203,158.321169 711.61203,158.321169 C708.454066,160.536247 702.753562,162.331923 698.88456,162.331923 L600,162.331923 L600,0 L667.851418,0 Z"/>
    <path fill="#B83FFF" d="M592.851418,0 C608.746724,0 622.84393,11.6985815 631.617782,23.5704903 C640.391634,11.6985815 654.48884,0 670.384146,0 C696.989309,0 718.557054,21.5677457 718.557054,48.1729083 C718.557054,104.081991 636.61203,158.321169 636.61203,158.321169 C633.454066,160.536247 627.753562,162.331923 623.88456,162.331923 L525,162.331923 L525,0 L592.851418,0 Z"/>
    <path fill="#52A5F9" d="M517.851418,0 C533.746724,0 547.84393,11.6985815 556.617782,23.5704903 C565.391634,11.6985815 579.48884,0 595.384146,0 C621.989309,0 643.557054,21.5677457 643.557054,48.1729083 C643.557054,104.081991 561.61203,158.321169 561.61203,158.321169 C558.454066,160.536247 552.753562,162.331923 548.88456,162.331923 L450,162.331923 L450,0 L517.851418,0 Z"/>
    <path fill="#FBAC2A" d="M442.851418,0 C458.746724,0 472.84393,11.6985815 481.617782,23.5704903 C490.391634,11.6985815 504.48884,0 520.384146,0 C546.989309,0 568.557054,21.5677457 568.557054,48.1729083 C568.557054,104.081991 486.61203,158.321169 486.61203,158.321169 C483.454066,160.536247 477.753562,162.331923 473.88456,162.331923 L375,162.331923 L375,0 L442.851418,0 Z"/>
    <path fill="#9E8FEB" d="M367.851418,0 C383.746724,0 397.84393,11.6985815 406.617782,23.5704903 C415.391634,11.6985815 429.48884,0 445.384146,0 C471.989309,0 493.557054,21.5677457 493.557054,48.1729083 C493.557054,104.081991 411.61203,158.321169 411.61203,158.321169 C408.454066,160.536247 402.753562,162.331923 398.88456,162.331923 L300,162.331923 L300,0 L367.851418,0 Z"/>
    <path fill="#4DD2FD" d="M292.851418,0 C308.746724,0 322.84393,11.6985815 331.617782,23.5704903 C340.391634,11.6985815 354.48884,0 370.384146,0 C396.989309,0 418.557054,21.5677457 418.557054,48.1729083 C418.557054,104.081991 336.61203,158.321169 336.61203,158.321169 C333.454066,160.536247 327.753562,162.331923 323.88456,162.331923 L225,162.331923 L225,0 L292.851418,0 Z"/>
    <path fill="#34E54F" d="M217.851418,0 C233.746724,0 247.84393,11.6985815 256.617782,23.5704903 C265.391634,11.6985815 279.48884,0 295.384146,0 C321.989309,0 343.557054,21.5677457 343.557054,48.1729083 C343.557054,104.081991 261.61203,158.321169 261.61203,158.321169 C258.454066,160.536247 252.753562,162.331923 248.88456,162.331923 L150,162.331923 L150,0 L217.851418,0 Z"/>
    <path fill="#515151" d="M142.851418,0 C158.746724,0 172.84393,11.6985815 181.617782,23.5704903 C190.391634,11.6985815 204.48884,0 220.384146,0 C246.989309,0 268.557054,21.5677457 268.557054,48.1729083 C268.557054,104.081991 186.61203,158.321169 186.61203,158.321169 C183.454066,160.536247 177.753562,162.331923 173.88456,162.331923 L75,162.331923 L75,0 L142.851418,0 Z"/>
    <path fill="#FF3434" d="M67.8514178,0 C83.7467239,0 97.84393,11.6985815 106.617782,23.5704903 C115.391634,11.6985815 129.48884,0 145.384146,0 C171.989309,0 193.557054,21.5677457 193.557054,48.1729083 C193.557054,104.081991 111.61203,158.321169 111.61203,158.321169 C108.454066,160.536247 102.753562,162.331923 98.8845596,162.331923 L0,162.331923 L0,0 L67.8514178,0 Z"/>
  </g>
</svg>
