<svg xmlns:xlink="http://www.w3.org/1999/xlink" width="354" height="287" viewBox="0 0 354 287">
  <defs>
    <polygon id="logo-a" points="353.122 286.744 115.193 286.744 115.193 122.101 353.122 122.101 353.122 286.744"/>
  </defs>
  <g fill="none" fill-rule="evenodd">
    <path fill="#000" d="M7.95880476 274.502215C6.91913113 274.502215 5.85992293 274.276482 4.85497744 273.807652 1.20635245 272.090779-.362925278 267.74108 1.35394704 264.090285L113.013592 26.5150935C114.509073 23.3374689 118.053513 21.6748593 121.448189 22.5495743 124.847205 23.4264597 127.141433 26.5975728 126.911359 30.0986032L117.632435 171.116548 193.763024 5.19418735C195.445169 1.52602778 199.779674-.0801485924 203.445663 1.60199559 207.111652 3.28196926 208.719999 7.61864547 207.037855 11.282464L114.381013 213.224415C112.911578 216.425915 109.367138 218.121083 105.952928 217.25722 102.538718 216.395528 100.227126 213.215733 100.459371 209.699509L109.80124 67.6874715 14.5723445 270.30228C13.3286431 272.94813 10.7001571 274.502215 7.95880476 274.502215M208.372317 88.920472C180.804687 138.777055 184.503233 153.642868 189.968574 160.4778 194.018743 165.539426 200.517246 168.588991 206.499168 168.237368 212.830541 167.870552 218.610606 163.781314 223.214254 156.418949 231.783422 142.707846 226.498234 118.971164 208.372317 88.920472M205.561508 182.870938C195.403528 182.870938 185.195626 177.891791 178.564722 169.600448 164.467268 151.980259 171.17414 123.438071 201.717537 71.0810617 202.987285 68.9040415 205.288024 67.5366211 207.805814 67.4606533 210.314922 67.382515 212.702481 68.6131934 214.100289 70.7099047 241.079711 111.179038 248.515873 143.49357 235.599177 164.158983 226.476529 178.753483 215.200737 182.363038 207.345666 182.818845 206.753117 182.853573 206.156227 182.870938 205.561508 182.870938"/>
    <path fill="#000" d="M212.272286 226.76904C194.422024 226.76904 173.975832 219.063735 153.052129 198.793355 150.1545 195.986887 150.082874 191.363704 152.889341 188.468245 155.693638 185.570616 160.316822 185.496819 163.21228 188.303286 190.43697 214.674966 219.886431 219.575975 241.98872 201.415329 254.922781 190.788519 263.402958 173.335459 265.24789 153.531738 266.717325 137.771675 264.750844 113.236246 247.032982 85.8552797 230.287508 59.9763055 226.632371 35.8185446 237.493597 22.8085159 244.686662 14.1937672 256.565856 12.4747244 270.107659 18.0789777 289.941767 25.6171541 289.407822 48.8155502 286.343063 60.0501028 285.283855 63.9439952 281.264073 66.2382229 277.376692 65.1746736 273.48497 64.1154654 271.192913 60.1000245 272.252122 56.2083025 272.260804 56.1757449 273.732408 50.5324225 273.178929 44.4419753 272.367159 35.5211849 268.036994 32.901381 264.855028 31.7054308 264.770378 31.6750436 264.69007 31.6446565 264.609761 31.6099284 260.331688 29.8279408 252.578631 27.5293722 248.704274 32.1699196 246.182143 35.1912676 245.353008 40.8519541 246.431751 47.6999088 247.840411 56.6402337 252.287783 67.0890622 259.294185 77.9199002 279.284569 108.81492 281.474613 136.827504 279.790298 154.888306 277.585061 178.54468 267.186154 199.615977 251.261133 212.701974 241.107493 221.043238 227.654681 226.76904 212.272286 226.76904M345.822162 112.949739C343.013524 112.949739 340.339458 111.321857 339.134825 108.587016 338.939479 108.142062 324.253818 74.8225844 311.091854 48.51602 308.079188 85.1368414 303.286705 106.227674 303.043608 107.286882 302.136335 111.217673 298.214226 113.666007 294.285606 112.760905 290.354815 111.853632 287.90431 107.931523 288.811583 104.002902 288.917938 103.540584 295.831008 72.8951728 298.133917 22.1617044 298.281512 18.9428401 300.519306 16.2014877 303.640498 15.4114226 306.759519 14.6235279 310.036987 15.9735843 311.690914 18.7366418 326.020612 42.6144071 351.428586 100.260945 352.502988 102.702768 354.126528 106.394803 352.450896 110.705433 348.761031 112.328973 347.803837 112.750052 346.805403 112.949739 345.822162 112.949739"/>
    <path fill="#000" d="M341.580771,103.444213 L298.305171,103.444213 C294.270195,103.444213 291.001409,100.175427 291.001409,96.1426224 C291.001409,92.1076469 294.270195,88.8388609 298.305171,88.8388609 L341.580771,88.8388609 C345.613576,88.8388609 348.882362,92.1076469 348.882362,96.1426224 C348.882362,100.175427 345.613576,103.444213 341.580771,103.444213"/>
    <mask id="logo-b" fill="#fff">
      <use xlink:href="#logo-a"/>
    </mask>
    <path fill="#000" d="M210.182304,286.745185 C200.369434,286.745185 190.526178,285.699 180.817493,283.595777 C155.431224,278.097879 133.415755,265.930008 117.145622,248.409662 C114.399929,245.4556 114.571399,240.832417 117.527632,238.088894 C120.483865,235.3432 125.104877,235.516841 127.8484,238.470903 C156.933216,269.791343 207.90327,280.66125 251.793124,264.896846 C275.130433,256.514341 295.190274,241.086366 309.804308,220.279871 C325.510109,197.919291 334.962674,169.832909 337.953634,136.706607 L298.304954,136.706607 C294.269978,136.706607 291.001192,133.43565 291.001192,129.402845 C291.001192,125.37004 294.269978,122.101254 298.304954,122.101254 L345.817387,122.101254 C347.829449,122.101254 349.752519,122.930389 351.130792,124.393311 C352.511236,125.856234 353.225333,127.824886 353.110296,129.832606 C348.747574,203.970669 313.617892,258.211679 256.728861,278.642677 C241.732817,284.027709 225.992288,286.745185 210.182304,286.745185" mask="url(#logo-b)"/>
  </g>
</svg>
