<svg width="104px" height="128px" viewBox="0 0 104 128" version="1.1" xmlns="http://www.w3.org/2000/svg" xmlns:xlink="http://www.w3.org/1999/xlink">
    <g stroke="none" stroke-width="1" fill="none" fill-rule="evenodd">
        <g transform="translate(-13.000000, 0.000000)" fill-rule="nonzero" fill="#232325">
            <path d="M68.6521739,49.2922208 L68.6521739,100.325858 C71.6624936,94.0247259 74.913637,87.7224947 78.3776006,81.4373186 C85.5088475,68.4980536 93.142617,56.338519 100.780209,45.3011475 C103.270106,41.7029031 105.597706,38.461529 107.712898,35.6119786 L88.1156205,7.38512878 L92.1555436,0.191655239 L116.884058,35.809258 C116.884058,35.809258 87.6081358,72.7110678 68.6521739,118.539398 L68.6521739,118.721933 L68.5767462,118.721933 C67.3151915,121.777896 66.0997115,124.873346 64.942029,128 C63.7843464,124.873346 62.5688665,121.777896 61.3073117,118.721933 L61.2318841,118.721933 L61.2318841,118.539398 C42.2759222,72.7110678 13,35.809258 13,35.809258 L37.8615763,0 L41.7684375,7.38512878 L22.1711603,35.6119776 C24.2863506,38.4615272 26.6139509,41.702902 29.1038491,45.3011475 C36.741441,56.338519 44.3752105,68.4980536 51.5064574,81.4373186 C54.970421,87.7224947 58.2215644,94.0247259 61.2318841,100.325858 L61.2318841,49.2922208 C57.9560027,47.86051 55.6666667,44.5907695 55.6666667,40.78617 C55.6666667,35.6620351 59.8193878,31.508103 64.942029,31.508103 C70.0646701,31.508103 74.2173913,35.6620351 74.2173913,40.78617 C74.2173913,44.5907695 71.9280552,47.86051 68.6521739,49.2922208 L68.6521739,49.2922208 Z"></path>
        </g>
    </g>
</svg>
