<svg xmlns="http://www.w3.org/2000/svg" xmlns:xlink="http://www.w3.org/1999/xlink" width="84" height="117" viewBox="0 0 84 117">
  <path fill="#ffffff" d="M68,55.418483 L68,114.974635 C80.5646194,97.5744341 89.7481218,80.4821653 95.2708829,65.1982665 C100.23397,51.4632318 101.59944,40.3531605 99.7505461,37.1422241 L87.2583586,14.8863648 C86.4473859,13.4415502 86.9612163,11.6128732 88.4060309,10.8019005 C89.8508455,9.99092776 91.6795224,10.5047581 92.4904951,11.9495727 L104.966348,34.1767017 C107.986656,39.421413 106.451519,51.9119642 100.913785,67.2373011 C94.4146459,85.2232638 83.0905787,105.495053 67.373855,125.834343 C66.1728746,127.388552 63.8271254,127.388552 62.626145,125.834343 C46.9082379,105.493522 35.5759486,85.2212752 29.0667034,67.2393854 C23.51741,51.9093769 21.9737617,39.4213204 24.9776817,34.2054321 L37.4698692,11.9495727 C38.280842,10.5047581 40.1095189,9.99092776 41.5543335,10.8019005 C42.9991481,11.6128732 43.5129785,13.4415502 42.7020058,14.8863648 L30.1934831,37.1709546 C28.3622854,40.3507964 29.7353604,51.4589206 34.7084431,65.1971381 C40.2402645,80.4788798 49.4318478,97.572545 62,114.975138 L62,55.418483 C59.0681697,54.2317082 57,51.3573776 57,48 C57,43.581722 60.581722,40 65,40 C69.418278,40 73,43.581722 73,48 C73,51.3573776 70.9318303,54.2317082 68,55.418483 L68,55.418483 Z" transform="translate(-23 -10)"/>
</svg>
